<svg id="Icon-History" xmlns="http://www.w3.org/2000/svg" width="24" height="24.434" viewBox="0 0 24 24.434">
  <path id="Icon-History-2" data-name="Icon-History" d="M7.76,5.255V24.167a.817.817,0,0,1-.808.822h0a.817.817,0,0,1-.808-.822V7.134H5.221a1.861,1.861,0,0,0-1.846,1.88V25.929a1.861,1.861,0,0,0,1.846,1.88H25.592a1.8,1.8,0,0,0,1.783-1.815V5.255a1.861,1.861,0,0,0-1.846-1.88L9.49,3.492A1.669,1.669,0,0,0,7.76,5.255Zm3.808,1.88h4.846a.817.817,0,0,1,.808.822h0a.817.817,0,0,1-.808.822H11.567a.817.817,0,0,1-.808-.822h0A.817.817,0,0,1,11.567,7.134Zm0,9.4h8.538a.817.817,0,0,1,.808.822h0a.817.817,0,0,1-.808.822H11.567a.817.817,0,0,1-.808-.822h0A.817.817,0,0,1,11.567,16.532Zm11.308,6.343H11.567a.817.817,0,0,1-.808-.822h0a.817.817,0,0,1,.808-.822H22.875a.817.817,0,0,1,.808.822h0A.817.817,0,0,1,22.875,22.875Zm0-9.4H11.567a.817.817,0,0,1-.808-.822h0a.817.817,0,0,1,.808-.822H22.875a.817.817,0,0,1,.808.822h0A.817.817,0,0,1,22.875,13.478Z" transform="translate(-3.375 -3.375)" fill="#fff"/>
</svg>
