<svg id="Icon-Buy" xmlns="http://www.w3.org/2000/svg" width="33.341" height="34.831" viewBox="0 0 33.341 34.831">
  <g id="Icon_feather-shopping-cart" data-name="Icon feather-shopping-cart" transform="translate(0 3.331)">
    <path id="Path_1" data-name="Path 1" d="M15,31.5A1.5,1.5,0,1,1,13.5,30,1.5,1.5,0,0,1,15,31.5Z" transform="translate(-1.38 -1.5)" fill="none"/>
    <path id="Path_2" data-name="Path 2" d="M31.5,31.5A1.5,1.5,0,1,1,30,30,1.5,1.5,0,0,1,31.5,31.5Z" transform="translate(-1.159 -1.5)" fill="none"/>
    <path id="Path_3" data-name="Path 3" d="M1.5,1.5H7.562l4.062,20.085A3.024,3.024,0,0,0,14.655,24H29.386a3.024,3.024,0,0,0,3.031-2.415L34.841,9H9.078" transform="translate(-1.5 -1.5)" fill="none"/>
  </g>
  <path id="Icon_awesome-shopping-cart" data-name="Icon awesome-shopping-cart" d="M25.161,16.343,27.413,5.062A1.269,1.269,0,0,0,26.3,3.471H7.585l-.437-2.43A1.191,1.191,0,0,0,6.028,0H1.143A1.23,1.23,0,0,0,0,1.3V2.17a1.23,1.23,0,0,0,1.143,1.3H4.473L7.819,22.1a3.13,3.13,0,0,0-1.34,2.634,2.871,2.871,0,0,0,2.668,3.037,2.871,2.871,0,0,0,2.668-3.037,3.246,3.246,0,0,0-.8-2.17H21a3.246,3.246,0,0,0-.8,2.17,2.871,2.871,0,0,0,2.668,3.037,2.871,2.871,0,0,0,2.668-3.037A3.1,3.1,0,0,0,24.031,22l.263-1.317a1.269,1.269,0,0,0-1.115-1.59H10.391l-.312-1.736H24.046A1.187,1.187,0,0,0,25.161,16.343Z" transform="translate(3.4 5.196)" fill="#fff"/>
  <path id="Polygon_2" data-name="Polygon 2" d="M6,0l6,6H0Z" transform="translate(26.118 6) rotate(180)" fill="#fff"/>
</svg>
