<svg id="icon-graph-illustration" xmlns="http://www.w3.org/2000/svg" width="782" height="322" viewBox="0 0 782 322">
  <ellipse id="Ellipse_30" data-name="Ellipse 30" cx="66.5" cy="62.5" rx="66.5" ry="62.5" transform="translate(23 163)" fill="rgba(55,59,58,0.52)"/>
  <ellipse id="Ellipse_31" data-name="Ellipse 31" cx="98.5" cy="87.5" rx="98.5" ry="87.5" transform="translate(80)" fill="rgba(55,59,58,0.52)"/>
  <ellipse id="Ellipse_32" data-name="Ellipse 32" cx="36" cy="35" rx="36" ry="35" transform="translate(0 85)" fill="rgba(55,59,58,0.52)"/>
  <ellipse id="Ellipse_33" data-name="Ellipse 33" cx="81" cy="79.5" rx="81" ry="79.5" transform="translate(608 163)" fill="rgba(55,59,58,0.52)"/>
  <ellipse id="Ellipse_34" data-name="Ellipse 34" cx="59" cy="51.5" rx="59" ry="51.5" transform="translate(664 52)" fill="rgba(55,59,58,0.52)"/>
  <ellipse id="Ellipse_35" data-name="Ellipse 35" cx="52" cy="42.5" rx="52" ry="42.5" transform="translate(551 73)" fill="rgba(55,59,58,0.52)"/>
  <g id="Graph" transform="translate(-371 -784)">
    <line id="Line_4" data-name="Line 4" y1="160" transform="translate(660.5 895.5)" fill="none" stroke="#707070" stroke-linecap="round" stroke-width="26"/>
    <line id="Line_5" data-name="Line 5" y1="227" transform="translate(782.5 828.5)" fill="none" stroke="#707070" stroke-linecap="round" stroke-width="26"/>
    <line id="Line_12" data-name="Line 12" y1="224" transform="translate(549.5 831.5)" fill="none" stroke="#707070" stroke-linecap="round" stroke-width="26"/>
    <line id="Line_6" data-name="Line 6" y1="157" transform="translate(913.5 898.5)" fill="none" stroke="#707070" stroke-linecap="round" stroke-width="26"/>
    <line id="Line_7" data-name="Line 7" y1="81" transform="translate(1040.5 974.5)" fill="none" stroke="#707070" stroke-linecap="round" stroke-width="26"/>
    <line id="Line_8" data-name="Line 8" x1="119" y1="67" transform="translate(540.5 831.5)" fill="none" stroke="#707070" stroke-width="5"/>
    <line id="Line_9" data-name="Line 9" y1="67" x2="122" transform="translate(661.5 831.5)" fill="none" stroke="#707070" stroke-width="5"/>
    <line id="Line_10" data-name="Line 10" x2="126" y2="66" transform="translate(782.5 831.5)" fill="none" stroke="#707070" stroke-width="5"/>
    <line id="Line_11" data-name="Line 11" x2="132" y2="80" transform="translate(908.5 897.5)" fill="none" stroke="#707070" stroke-width="5"/>
  </g>
</svg>
